<?xml version="1.0" encoding="utf-8"?>

<!DOCTYPE svg PUBLIC "-//W3C//DTD SVG 1.1//EN" "http://www.w3.org/Graphics/SVG/1.1/DTD/svg11.dtd">
<!-- Uploaded to: SVG Repo, www.svgrepo.com, Generator: SVG Repo Mixer Tools -->
<svg fill="#000000" version="1.1" id="Layer_1" xmlns="http://www.w3.org/2000/svg" xmlns:xlink="http://www.w3.org/1999/xlink" 
	 width="800px" height="800px" viewBox="0 0 72 72" enable-background="new 0 0 72 72" xml:space="preserve">
<g>
	<g>
		<path d="M68.5,54.569c0,3.828-3.104,6.932-6.932,6.932H10.432c-3.828,0-6.932-3.104-6.932-6.932V17.432
			c0-3.828,3.104-6.932,6.932-6.932h51.137c3.828,0,6.932,3.104,6.932,6.932V54.569z M64.5,17.432c0-1.619-1.313-2.932-2.932-2.932
			H10.432c-1.619,0-2.932,1.313-2.932,2.932v37.137c0,1.619,1.313,2.932,2.932,2.932h51.137c1.619,0,2.932-1.313,2.932-2.932V17.432
			z"/>
	</g>
	<g>
		<g>
			<path d="M35.159,41.932c-0.224,0-0.447-0.076-0.632-0.225l-16.765-13.65c-0.428-0.349-0.492-0.979-0.144-1.407
				c0.348-0.426,0.979-0.493,1.407-0.144l16.14,13.14l15.748-12.54c0.434-0.345,1.063-0.272,1.405,0.159
				c0.344,0.433,0.272,1.062-0.159,1.405L35.782,41.713C35.6,41.86,35.38,41.932,35.159,41.932z"/>
		</g>
		<g>
			<path d="M20.659,46.182c-0.226,0-0.452-0.076-0.64-0.232c-0.424-0.354-0.481-0.984-0.127-1.408l0.438-0.523
				c0.353-0.424,0.982-0.482,1.408-0.127c0.424,0.354,0.481,0.984,0.127,1.408l-0.438,0.523
				C21.23,46.061,20.946,46.182,20.659,46.182z"/>
		</g>
		<g>
			<path d="M23.213,43.122c-0.236,0-0.474-0.082-0.664-0.252c-0.413-0.367-0.45-0.998-0.084-1.412l5.625-6.336
				c0.368-0.414,0.999-0.45,1.412-0.084c0.413,0.367,0.45,0.999,0.084,1.412l-5.625,6.336
				C23.763,43.008,23.488,43.122,23.213,43.122z"/>
		</g>
		<g>
			<path d="M48.217,44.977c-0.286,0-0.57-0.123-0.769-0.359l-6.016-7.195c-0.354-0.424-0.298-1.054,0.126-1.409
				c0.427-0.354,1.056-0.297,1.409,0.126l6.016,7.195c0.354,0.424,0.298,1.055-0.126,1.41C48.67,44.901,48.442,44.977,48.217,44.977
				z"/>
		</g>
	</g>
</g>
</svg>